<?xml version="1.0" encoding="UTF-8" standalone="no"?><!-- Generator: Gravit.io --><svg xmlns="http://www.w3.org/2000/svg" xmlns:xlink="http://www.w3.org/1999/xlink" style="isolation:isolate" viewBox="0 0 362.835 515.906" width="362.835pt" height="515.906pt"><defs><clipPath id="_clipPath_7PKaXtqsPNXTlNMfQKJav9GNfpRxkJOw"><rect width="362.835" height="515.906"/></clipPath></defs><g clip-path="url(#_clipPath_7PKaXtqsPNXTlNMfQKJav9GNfpRxkJOw)"><rect x="-108" y="257.953" width="622" height="257.953" transform="matrix(1,0,0,1,0,0)" fill="none" vector-effect="non-scaling-stroke" stroke-width="1" stroke="rgb(0,0,0)" stroke-linejoin="miter" stroke-linecap="square" stroke-miterlimit="2"/><rect x="-108" y="85.975" width="622" height="257.953" transform="matrix(1,0,0,1,0,0)" fill="none" vector-effect="non-scaling-stroke" stroke-width="1" stroke="rgb(0,0,0)" stroke-linejoin="miter" stroke-linecap="square" stroke-miterlimit="2"/><rect x="-108" y="171.95" width="622" height="257.953" transform="matrix(1,0,0,1,0,0)" fill="none" vector-effect="non-scaling-stroke" stroke-width="1" stroke="rgb(0,0,0)" stroke-linejoin="miter" stroke-linecap="square" stroke-miterlimit="2"/><g opacity="0.5"><mask id="_mask_ELvbYU61V8PGDQzc0LDMI2FOExQP5ipO"><rect x="90.709" y="-45" width="181.417" height="655" fill="white" stroke="none"/></mask><rect x="90.709" y="-45" width="181.417" height="655" transform="matrix(1,0,0,1,0,0)" fill="none"/><rect x="90.709" y="-45" width="181.417" height="655" transform="matrix(1,0,0,1,0,0)" fill="none" mask="url(#_mask_ELvbYU61V8PGDQzc0LDMI2FOExQP5ipO)" vector-effect="non-scaling-stroke" stroke-width="2" stroke-dasharray="10,10" stroke="rgb(0,0,0)" stroke-linejoin="miter" stroke-linecap="square" stroke-miterlimit="2"/></g><mask id="_mask_7DQd3grNANcRhqSxxLrUb6yuNPyMWttw"><rect x="181.417" y="-45" width="181.417" height="655" fill="white" stroke="none"/></mask><rect x="181.417" y="-45" width="181.417" height="655" transform="matrix(1,0,0,1,0,0)" fill="none"/><rect x="181.417" y="-45" width="181.417" height="655" transform="matrix(1,0,0,1,0,0)" fill="none" mask="url(#_mask_7DQd3grNANcRhqSxxLrUb6yuNPyMWttw)" vector-effect="non-scaling-stroke" stroke-width="2" stroke="rgb(0,0,0)" stroke-linejoin="miter" stroke-linecap="square" stroke-miterlimit="2"/><g clip-path="url(#_clipPath_yGEUpUvGUCjxgu8k0ojhAkWk8KqinOMS)"><text transform="matrix(1,0,0,1,0,354.304)" style="font-family:'Open Sans';font-weight:400;font-size:10px;font-style:normal;fill:#000000;stroke:none;">stat</text></g><defs><clipPath id="_clipPath_yGEUpUvGUCjxgu8k0ojhAkWk8KqinOMS"><rect x="0" y="0" width="20" height="13.618" transform="matrix(1,0,0,1,0,343.616)"/></clipPath></defs><g clip-path="url(#_clipPath_4pxzm2ByDmSDYiqYjfw3m9pmzz5NwOEZ)"><text transform="matrix(1,0,0,1,0,182.638)" style="font-family:'Open Sans';font-weight:400;font-size:10px;font-style:normal;fill:#000000;stroke:none;">girl</text></g><defs><clipPath id="_clipPath_4pxzm2ByDmSDYiqYjfw3m9pmzz5NwOEZ"><rect x="0" y="0" width="17" height="13.618" transform="matrix(1,0,0,1,0,171.95)"/></clipPath></defs><g clip-path="url(#_clipPath_Y8sHGePalGgZ02wT1h7hK16ANlAiNz10)"><text transform="matrix(1,0,0,1,0,10.688)" style="font-family:'Open Sans';font-weight:400;font-size:10px;font-style:normal;fill:#000000;stroke:none;">city {day} {life} title=</text></g><defs><clipPath id="_clipPath_Y8sHGePalGgZ02wT1h7hK16ANlAiNz10"><rect x="0" y="0" width="96" height="13.618" transform="matrix(1,0,0,1,0,0)"/></clipPath></defs></g></svg>